Simulation
nRows=45
nColumns=15
endheader
time  TH_x TH_y TH_z SC_y  SC_z  SC_x  AC_y  AC_z  AC_x  GH_y  GH_z  GH_yy  EL_x  PS_y
0.0  0.000000  0.000000  0.000000  -27.832188365727113  -1.2397856597255386  5.476730521280286  54.72059870810434  2.7493716672842647  -8.099970181439872  31.6106420200762  5.8246148143427545  10.170321142615803  26.755037658708314  0.000000
0.039  0.000000  0.000000  0.000000  -27.344380671245627  -0.6938955118708967  5.200886523395185  53.79299607252735  3.1302450999306486  -8.248280869150472  31.731870090305343  5.162858484134525  10.20023328421748  26.46193445968863  0.000000
0.078  0.000000  0.000000  0.000000  -26.808332914907787  -0.3978908051541259  4.933657351161328  52.97656464951071  3.295333532186223  -8.286313344952447  32.036721119231025  4.578668548707178  10.142663444234312  25.80381147185463  0.000000
0.11699999999999999  0.000000  0.000000  0.000000  -26.652344783313847  -0.2369711402450327  4.810310570136742  52.577121159331135  3.1627021748224724  -8.25076366281824  32.466269928051446  4.394571677278892  9.897499816750331  25.2421302781788  0.000000
0.156  0.000000  0.000000  0.000000  -26.639616687763574  -0.13472339794077307  4.869621664252448  52.48907282782413  2.849651949391248  -8.194202281449462  32.91832602680624  4.585480246214016  9.403844246298558  24.88681705126573  0.000000
0.195  0.000000  0.000000  0.000000  -26.686312193237143  -0.04285086946766473  5.078432848084541  52.614735562753836  2.449979307885194  -8.10552871462167  33.346932527632504  5.136836836218137  8.646098943835266  24.674287308358856  0.000000
0.23399999999999999  0.000000  0.000000  0.000000  -26.75629997732905  0.042162179800886754  5.380150472800417  52.87253865400707  2.0390581297514743  -7.983158220984592  33.733730056380644  6.035376030153951  7.613021009393334  24.58200082826997  0.000000
0.273  0.000000  0.000000  0.000000  -26.844156485372906  0.13255211520166288  5.722597656991601  53.251930130116335  1.6436055778083773  -7.796917216421887  34.11252363860134  7.280441675184329  6.31889590796979  24.565658107538944  0.000000
0.312  0.000000  0.000000  0.000000  -26.957607574645255  0.2275583452210811  6.072742656879833  53.74456478026566  1.2917706013782069  -7.51800073614063  34.51672230215828  8.844573056754477  4.762627889636238  24.61728099984652  0.000000
0.351  0.000000  0.000000  0.000000  -27.10295382006321  0.3215063762976838  6.403740927405812  54.37704587549907  1.0039241276394666  -7.126749139152176  34.977321068104544  10.699353675842772  2.9323571053771533  24.71384802620427  0.000000
0.39  0.000000  0.000000  0.000000  -27.279715796876488  0.40707793182024626  6.700598380803785  55.138526670101875  0.8133343639236001  -6.6165260237007795  35.519316487861175  12.793376038637547  0.8259436708732097  24.844706112622553  0.000000
0.429  0.000000  0.000000  0.000000  -27.476789617617655  0.4828418758426374  6.952755576596206  56.02079028125065  0.7436870976198555  -6.002846855803638  36.151893337765635  15.082575882325992  -1.5527335103376638  24.984545913667493  0.000000
0.46799999999999997  0.000000  0.000000  0.000000  -27.67924152761292  0.5502660995638672  7.166430465693426  56.98829213988568  0.8132479997294446  -5.315994876738609  36.867130378745784  17.51113854817786  -4.174293950596424  25.11780752650698  0.000000
0.507  0.000000  0.000000  0.000000  -27.876285105365938  0.6185594745676711  7.363755305147709  58.00286878118157  1.0230278223142557  -4.596959781110502  37.64264979989228  20.02608913612346  -6.9883631475895545  25.22186729145976  0.000000
0.546  0.000000  0.000000  0.000000  -28.05406707096058  0.697063466237339  7.570730423574713  59.02237341444848  1.3738991322885978  -3.8927478940090996  38.4514741704075  22.579076144386764  -9.916690765300343  25.291908114989038  0.000000
0.585  0.000000  0.000000  0.000000  -28.20017754815941  0.8027140144071185  7.812563759035323  60.00880355514629  1.8476507877511916  -3.231335819018361  39.2730721254027  25.130576492278177  -12.873303782772453  25.323390682351135  0.000000
0.624  0.000000  0.000000  0.000000  -28.31602941378755  0.947272563054003  8.104143179230968  60.93974219265181  2.407445177247657  -2.6223486976073045  40.08577215488798  27.659880420402146  -15.790668960579401  25.32186714354223  0.000000
0.663  0.000000  0.000000  0.000000  -28.403432253705805  1.1331345950001976  8.449444106013008  61.79892995485133  3.0188457001048437  -2.0628384611397297  40.86868852758214  30.152826424710064  -18.61732208156747  25.28799130062919  0.000000
0.702  0.000000  0.000000  0.000000  -28.473258525672296  1.3561978911892347  8.845590519141895  62.58617215116421  3.656847623025471  -1.5475000123138285  41.60558821940903  32.59962847938181  -21.31322036994057  25.229043603870995  0.000000
0.741  0.000000  0.000000  0.000000  -28.539172282446575  1.6093355343615354  9.282685419487859  63.29936158655263  4.308019269785292  -1.068387715228714  42.2882152790706  34.991651082520306  -23.849018533978704  25.15299917564023  0.000000
0.78  0.000000  0.000000  0.000000  -28.606355374450867  1.8835380418316288  9.750780339616915  63.93635726540398  4.966351289549517  -0.6255623603160482  42.91560367428738  37.324227692106554  -26.20400666374037  25.067913266022796  0.000000
0.819  0.000000  0.000000  0.000000  -28.6790124851894  2.1739829316912287  10.243248388240948  64.48583470608776  5.6201380005700825  -0.2215193027040251  43.49482981225854  39.59598965380177  -28.364415225269596  24.98449732697011  0.000000
0.858  0.000000  0.000000  0.000000  -28.762316978462103  2.477449639999766  10.75364090258416  64.93936012771965  6.259679438014842  0.14306424613078117  44.03374249864603  41.802062398002825  -30.32540685950984  24.91180340352044  0.000000
0.897  0.000000  0.000000  0.000000  -28.857275889787164  2.7929468905216948  11.276385660994313  65.28998579208016  6.879799214459241  0.46859047779437174  44.53858296347724  43.93580817563694  -32.09006705586369  24.852672353347767  0.000000
0.9359999999999999  0.000000  0.000000  0.000000  -28.963244638153412  3.119038706387128  11.808127726235162  65.53796009113377  7.480291240387371  0.7586992927374346  45.009650854305036  45.98721076081739  -33.66868929634927  24.804514695053378  0.000000
0.975  0.000000  0.000000  0.000000  -29.079680678684277  3.4560494415993364  12.344975805576713  65.68703160806494  8.063192210497945  1.020053688999486  45.443145007311394  47.94708956195756  -35.075541887897664  24.7622470761031  0.000000
1.014  0.000000  0.000000  0.000000  -29.20718509307613  3.8040674361118025  12.88388826962894  65.74588419303858  8.631630453611141  1.2630194132343526  45.831645138829074  49.80334875622386  -36.32512604238679  24.72025503153562  0.000000
1.053  0.000000  0.000000  0.000000  -29.34897690372038  4.164839631924351  13.421438740938285  65.72509599092487  9.18726575299886  1.4994752912337983  46.16989483851166  51.54432967883499  -37.43184492031303  24.673660059590624  0.000000
1.092  0.000000  0.000000  0.000000  -29.508229616490066  4.541559013911042  13.955055886203263  65.63665225831373  9.726361510238515  1.7435601103575447  46.45591020211585  53.1588275230046  -38.409248291990686  24.618603711043356  0.000000
1.131  0.000000  0.000000  0.000000  -29.68333609605494  4.9349451743612285  14.47622060233483  65.48945012948603  10.251984086396222  2.00596231962511  46.68929079395648  54.64059601507727  -39.27205097072337  24.551938179918295  0.000000
1.17  0.000000  0.000000  0.000000  -29.873143268193758  5.344519248002212  14.977289333801565  65.29303595246809  10.774888641886472  2.298178357436894  46.867675104792085  55.985521592350274  -40.033721256657415  24.467226715993768  0.000000
1.209  0.000000  0.000000  0.000000  -30.074709480369876  5.763351753240283  15.46150115706028  65.05791620946495  11.304625503067477  2.6220266124269296  46.99274043202819  57.195010510273725  -40.703579064016104  24.36355750318165  0.000000
1.248  0.000000  0.000000  0.000000  -30.280604947423402  6.178912398453754  15.930224808818936  64.79565631927402  11.845546863268966  2.9741677014185286  47.06870986504084  58.275377702940304  -41.28614189597662  24.240553306403505  0.000000
1.287  0.000000  0.000000  0.000000  -30.485257495808785  6.584180286162435  16.37658245500494  64.51275903912033  12.395302544620382  3.3544337555857533  47.10624389338996  59.235643091031505  -41.78677641446468  24.091144813786272  0.000000
1.326  0.000000  0.000000  0.000000  -30.686103046796127  6.975430986480965  16.78954490542172  64.21469053060915  12.95490276229592  3.765110750649392  47.11763773404893  60.08183772269137  -42.211303274574206  23.913068341277633  0.000000
1.365  0.000000  0.000000  0.000000  -30.88037399618809  7.346487988091044  17.161386560633996  63.908708177678015  13.529679030295053  4.207554200728593  47.114724774665284  60.81676236968424  -42.565265901939966  23.70197117834385  0.000000
1.404  0.000000  0.000000  0.000000  -31.067179209236567  7.690594111636269  17.48896001449258  63.60635915033069  14.11274802736877  4.677843250118623  47.109333874816926  61.448387578221286  -42.853649987596164  23.460520176798887  0.000000
1.443  0.000000  0.000000  0.000000  -31.25014229590423  8.001278726560853  17.77665623010403  63.321804906639855  14.682855764342632  5.162718365128551  47.11286853505492  61.986805245785504  -43.07734462210206  23.19370076759265  0.000000
1.482  0.000000  0.000000  0.000000  -31.42681077406323  8.274863642364028  18.032069368261478  63.06806775557886  15.213375960700658  5.64187885740976  47.119075101672706  62.4330423659763  -43.23110329555715  22.910981937965534  0.000000
1.521  0.000000  0.000000  0.000000  -31.600130282771676  8.506785062397924  18.261219585016264  62.86065635345455  15.67809854812736  6.091939272666755  47.11854086076377  62.7841912931817  -43.31630254762322  22.620913418233325  0.000000
1.56  0.000000  0.000000  0.000000  -31.77148351392217  8.695278160941703  18.46717361819215  62.712495747672534  16.049049710607633  6.486059512650052  47.107184913707904  63.04388210339018  -43.335989645212614  22.338956473765855  0.000000
1.599  0.000000  0.000000  0.000000  -31.93739036458789  8.836041235505713  18.65176382415347  62.634083219273734  16.310625739686877  6.798509320458952  47.08624949160958  63.21299732799088  -43.28966862264758  22.088858492257813  0.000000
1.638  0.000000  0.000000  0.000000  -32.09627952952809  8.927986087671632  18.80385417884327  62.63483139976501  16.456737561030938  7.015269067400978  47.055816358984  63.29439688041186  -43.18047333527375  21.889304059131945  0.000000
1.677  0.000000  0.000000  0.000000  -32.24543100070457  8.973847888586613  18.90929831891279  62.717287269849635  16.485237872192087  7.130040538069169  47.01245677952407  63.2878021518582  -43.01115338409636  21.75076469208748  0.000000
1.716  0.000000  0.000000  0.000000  -32.38053982791128  8.974247161763962  18.958533731109092  62.87738525581695  16.39977914611827  7.141382072545099  46.952072352419364  63.18515076780587  -42.779222504035104  21.678258101179427  0.000000
